<mxfile host="app.diagrams.net" modified="2021-11-23T09:18:29.409Z" agent="5.0 (Macintosh; Intel Mac OS X 10_15_7) AppleWebKit/537.36 (KHTML, like Gecko) Chrome/96.0.4664.45 Safari/537.36" etag="zmXw52D5ES9zCg4DLZk7" version="14.6.13" type="github">
  <diagram id="ceBjnJbVh1Aek3-lfcm4" name="Page-1">
    <mxGraphModel dx="1034" dy="688" grid="1" gridSize="10" guides="1" tooltips="1" connect="1" arrows="1" fold="1" page="1" pageScale="1" pageWidth="827" pageHeight="1169" math="0" shadow="0">
      <root>
        <mxCell id="0" />
        <mxCell id="1" parent="0" />
        <mxCell id="3qK-AXKtgEHq6JbBa0pC-3" style="edgeStyle=orthogonalEdgeStyle;rounded=0;orthogonalLoop=1;jettySize=auto;html=1;exitX=1;exitY=0.5;exitDx=0;exitDy=0;" parent="1" source="3qK-AXKtgEHq6JbBa0pC-4" target="3qK-AXKtgEHq6JbBa0pC-6" edge="1">
          <mxGeometry relative="1" as="geometry" />
        </mxCell>
        <mxCell id="3qK-AXKtgEHq6JbBa0pC-4" value="client" style="rounded=0;whiteSpace=wrap;html=1;sketch=1;fillColor=#dae8fc;strokeColor=#6c8ebf;shadow=0;glass=0;" parent="1" vertex="1">
          <mxGeometry x="70" y="440" width="120" height="60" as="geometry" />
        </mxCell>
        <mxCell id="3qK-AXKtgEHq6JbBa0pC-6" value="tnc" style="ellipse;whiteSpace=wrap;html=1;rounded=0;shadow=0;glass=0;sketch=1;fillColor=#ffe6cc;strokeColor=#d79b00;" parent="1" vertex="1">
          <mxGeometry x="260" y="430" width="120" height="80" as="geometry" />
        </mxCell>
        <mxCell id="3qK-AXKtgEHq6JbBa0pC-7" value="server2" style="ellipse;shape=cloud;whiteSpace=wrap;html=1;rounded=0;shadow=0;glass=0;sketch=1;fillColor=#e1d5e7;strokeColor=#9673a6;" parent="1" vertex="1">
          <mxGeometry x="600" y="380" width="120" height="80" as="geometry" />
        </mxCell>
        <mxCell id="UfnGIJH9mJiDoNbVRN8_-1" value="server1" style="ellipse;shape=cloud;whiteSpace=wrap;html=1;rounded=0;shadow=0;glass=0;sketch=1;fillColor=#e1d5e7;strokeColor=#9673a6;" vertex="1" parent="1">
          <mxGeometry x="600" y="260" width="120" height="80" as="geometry" />
        </mxCell>
        <mxCell id="UfnGIJH9mJiDoNbVRN8_-2" value="server3" style="ellipse;shape=cloud;whiteSpace=wrap;html=1;rounded=0;shadow=0;glass=0;sketch=1;fillColor=#e1d5e7;strokeColor=#9673a6;" vertex="1" parent="1">
          <mxGeometry x="600" y="490" width="120" height="80" as="geometry" />
        </mxCell>
        <mxCell id="UfnGIJH9mJiDoNbVRN8_-3" value="server4" style="ellipse;shape=cloud;whiteSpace=wrap;html=1;rounded=0;shadow=0;glass=0;sketch=1;fillColor=#e1d5e7;strokeColor=#9673a6;" vertex="1" parent="1">
          <mxGeometry x="600" y="600" width="120" height="80" as="geometry" />
        </mxCell>
        <mxCell id="UfnGIJH9mJiDoNbVRN8_-6" value="" style="curved=1;endArrow=classic;html=1;fontFamily=Comic Sans MS;entryX=0.16;entryY=0.55;entryDx=0;entryDy=0;entryPerimeter=0;exitX=1;exitY=0.5;exitDx=0;exitDy=0;sketch=0;" edge="1" parent="1" source="3qK-AXKtgEHq6JbBa0pC-6" target="UfnGIJH9mJiDoNbVRN8_-1">
          <mxGeometry width="50" height="50" relative="1" as="geometry">
            <mxPoint x="440" y="370" as="sourcePoint" />
            <mxPoint x="490" y="320" as="targetPoint" />
            <Array as="points">
              <mxPoint x="410" y="304" />
            </Array>
          </mxGeometry>
        </mxCell>
        <mxCell id="UfnGIJH9mJiDoNbVRN8_-8" value="" style="curved=1;endArrow=classic;html=1;fontFamily=Comic Sans MS;entryX=0.16;entryY=0.55;entryDx=0;entryDy=0;entryPerimeter=0;exitX=1;exitY=0.5;exitDx=0;exitDy=0;sketch=0;" edge="1" parent="1" source="3qK-AXKtgEHq6JbBa0pC-6" target="3qK-AXKtgEHq6JbBa0pC-7">
          <mxGeometry width="50" height="50" relative="1" as="geometry">
            <mxPoint x="480" y="490" as="sourcePoint" />
            <mxPoint x="530" y="440" as="targetPoint" />
            <Array as="points">
              <mxPoint x="520" y="410" />
            </Array>
          </mxGeometry>
        </mxCell>
        <mxCell id="UfnGIJH9mJiDoNbVRN8_-9" value="" style="curved=1;endArrow=classic;html=1;fontFamily=Comic Sans MS;entryX=0.16;entryY=0.55;entryDx=0;entryDy=0;entryPerimeter=0;sketch=0;" edge="1" parent="1" target="UfnGIJH9mJiDoNbVRN8_-2">
          <mxGeometry width="50" height="50" relative="1" as="geometry">
            <mxPoint x="380" y="470" as="sourcePoint" />
            <mxPoint x="510" y="510" as="targetPoint" />
            <Array as="points">
              <mxPoint x="420" y="510" />
              <mxPoint x="540" y="540" />
            </Array>
          </mxGeometry>
        </mxCell>
        <mxCell id="UfnGIJH9mJiDoNbVRN8_-10" value="" style="verticalLabelPosition=bottom;verticalAlign=top;html=1;shape=mxgraph.basic.x;sketch=1;fontFamily=Comic Sans MS;fillColor=#f8cecc;opacity=50;strokeColor=#b85450;" vertex="1" parent="1">
          <mxGeometry x="500" y="300" width="30" height="30" as="geometry" />
        </mxCell>
        <mxCell id="UfnGIJH9mJiDoNbVRN8_-11" value="" style="verticalLabelPosition=bottom;verticalAlign=top;html=1;shape=mxgraph.basic.x;sketch=1;fontFamily=Comic Sans MS;fillColor=#f8cecc;opacity=50;strokeColor=#b85450;" vertex="1" parent="1">
          <mxGeometry x="500" y="410" width="30" height="30" as="geometry" />
        </mxCell>
        <mxCell id="UfnGIJH9mJiDoNbVRN8_-12" value="" style="verticalLabelPosition=bottom;verticalAlign=top;html=1;shape=mxgraph.basic.tick;sketch=1;fontFamily=Comic Sans MS;fillColor=#d5e8d4;opacity=50;strokeColor=#82b366;" vertex="1" parent="1">
          <mxGeometry x="498" y="510" width="34" height="40" as="geometry" />
        </mxCell>
        <mxCell id="UfnGIJH9mJiDoNbVRN8_-13" value="" style="shape=flexArrow;endArrow=classic;html=1;fontFamily=Comic Sans MS;sketch=1;fillColor=#f5f5f5;strokeColor=#666666;" edge="1" parent="1">
          <mxGeometry width="50" height="50" relative="1" as="geometry">
            <mxPoint x="514.5" y="350" as="sourcePoint" />
            <mxPoint x="514.5" y="400" as="targetPoint" />
          </mxGeometry>
        </mxCell>
        <mxCell id="UfnGIJH9mJiDoNbVRN8_-14" value="" style="shape=flexArrow;endArrow=classic;html=1;fontFamily=Comic Sans MS;sketch=1;fillColor=#f5f5f5;strokeColor=#666666;" edge="1" parent="1">
          <mxGeometry width="50" height="50" relative="1" as="geometry">
            <mxPoint x="514.5" y="460" as="sourcePoint" />
            <mxPoint x="514.5" y="510" as="targetPoint" />
          </mxGeometry>
        </mxCell>
      </root>
    </mxGraphModel>
  </diagram>
</mxfile>
